<?xml version="1.0" encoding="UTF-8" standalone="no"?>
<!DOCTYPE svg PUBLIC "-//W3C//DTD SVG 1.1//EN" "http://www.w3.org/Graphics/SVG/1.1/DTD/svg11.dtd">
<svg viewBox="0 0 512 512" version="1.1" xmlns="http://www.w3.org/2000/svg" xmlns:xlink="http://www.w3.org/1999/xlink" xml:space="preserve" xmlns:serif="http://www.serif.com/" style="fill-rule:evenodd;clip-rule:evenodd;stroke-linejoin:round;stroke-miterlimit:2;">
    <g transform="matrix(1,0,0,1,-3240.44,-2400.09)">
        <path d="M3626.52,2558.95L3626.52,2678.02L3507.45,2678.02L3507.45,2558.95L3626.52,2558.95ZM3487.23,2665.41L3487.23,2704.92L3447.73,2704.92L3447.73,2665.41L3487.23,2665.41ZM3508.62,2491.02L3508.62,2451.52L3548.12,2451.52L3548.12,2491.02L3508.62,2491.02ZM3743.9,2532.4C3733.48,2507.85 3718.69,2486.49 3699.54,2468.31C3680.41,2450.15 3657.6,2435.94 3631.12,2425.69C3604.63,2415.45 3575.54,2410.33 3543.84,2410.33L3462.68,2410.33L3462.68,2502.37L3419.5,2502.37L3419.5,2534.46L3467.09,2534.46L3467.09,2582.06L3419.5,2582.06L3419.5,2537.6L3385.51,2537.6L3385.51,2617.37L3422.4,2617.37L3422.4,2699.51L3385.51,2699.51L3385.51,2932.85L3485.21,2932.85L3485.21,2816.28L3543.84,2816.28C3575.54,2816.28 3604.63,2811.06 3631.12,2800.62C3657.6,2790.18 3680.41,2775.88 3699.54,2757.71C3718.68,2739.54 3733.47,2718.07 3743.9,2693.33C3754.35,2668.59 3759.57,2641.92 3759.57,2613.31L3759.57,2612.14C3759.57,2583.53 3754.35,2556.96 3743.9,2532.4Z" style="fill:white;fill-rule:nonzero;"/>
        <path d="M3337.91,2400.09L3424.25,2400.09L3424.25,2486.43L3337.91,2486.43L3337.91,2400.09Z" style="fill:rgb(195,194,194);fill-rule:nonzero;"/>
        <path d="M3240.44,2457.06L3288.03,2457.06L3288.03,2504.66L3240.44,2504.66L3240.44,2457.06Z" style="fill:rgb(152,152,152);fill-rule:nonzero;"/>
        <path d="M3307.03,2525.58L3358.4,2525.58L3358.4,2576.95L3307.03,2576.95L3307.03,2525.58Z" style="fill:rgb(241,117,117);fill-rule:nonzero;"/>
        <path d="M3306.51,2622.24L3376.52,2622.24L3376.52,2692.25L3306.51,2692.25L3306.51,2622.24Z" style="fill:rgb(221,146,66);fill-rule:nonzero;"/>
        <path d="M3243.54,2578.98L3291.13,2578.98L3291.13,2626.58L3243.54,2626.58L3243.54,2578.98Z" style="fill:rgb(21,118,172);fill-rule:nonzero;"/>
        
    </g>
</svg>
